# AST/ASF file generated using VICON BodyLanguage
# -----------------------------------------------
:version 1.10
:name VICON
:units
  mass 1.0
  length 0.45
  angle deg
:documentation
   .ast/.asf automatically generated from VICON data using
   VICON BodyBuilder and BodyLanguage model FoxedUp or BRILLIANT.MOD
:root
   order TX TY TZ RX RY RZ
   axis XYZ
   position 0 0 0  
   orientation 0 0 0 
:bonedata
  begin
     id 1 
     name lhipjoint
     direction 0.61886 -0.69539 0.365302 
     length 2.20474 
     axis 0 0 0  XYZ
  end
  begin
     id 2 
     name lfemur
     direction 0.34202 -0.939693 0  
     length 6.65149  
     axis 0 0 20  XYZ
    dof rx ry rz
    limits (-160.0 20.0)
           (-70.0 70.0)
           (-60.0 70.0)
  end
  begin
     id 3 
     name ltibia
     direction 0.34202 -0.939693 0   
     length 6.35814   
     axis 0 0 20   XYZ
    dof rx
    limits (-10.0 170.0)
  end
  begin
     id 4 
     name lfoot
     direction 0.101224 -0.278109 0.955201   
     length 2.18766   
     axis -90 7.62852e-016 20   XYZ
    dof rx rz
    limits (-45.0 90.0)
           (-70.0 20.0)
  end
  begin
     id 5 
     name ltoes
     direction 1.53524e-011 -4.21877e-011 1   
     length 1.09206   
     axis -90 7.62852e-016 20   XYZ
    dof rx
    limits (-90.0 20.0)
  end
  begin
     id 6 
     name rhipjoint
     direction -0.600207 -0.708087 0.371972   
     length 2.1652  
     axis 0 0 0  XYZ 
  end
  begin
     id 7 
     name rfemur
     direction -0.34202 -0.939693 0   
     length 6.54691   
     axis 0 0 -20   XYZ
    dof rx ry rz
    limits (-160.0 20.0)
           (-70.0 70.0)
           (-70.0 60.0)
  end
  begin
     id 8 
     name rtibia
     direction -0.34202 -0.939693 0   
     length 6.37474   
     axis 0 0 -20   XYZ
    dof rx
    limits (-10.0 170.0)
 end
 begin
     id 9 
     name rfoot
     direction -0.111266 -0.3057 0.945604   
     length 2.00903  
     axis -90 -7.62852e-016 -20   XYZ
    dof rx rz
    limits (-45.0 90.0)
           (-20.0 70.0)
  end
  begin
     id 10 
     name rtoes
     direction -1.5362e-011 -4.21913e-011 1   
     length 1.00221   
     axis -90 -7.62852e-016 -20   XYZ
    dof rx
    limits (-90.0 20.0)
  end
  begin
     id 11 
     name lowerback
     direction -0.0224561 0.999731 -0.00577314   
     length 2.10409   
     axis 0 0 0   XYZ
    dof rx ry rz
    limits (-20.0 45.0)
           (-30.0 30.0)
           (-30.0 30.0)
  end
  begin
     id 12 
     name upperback
     direction 0.0213126 0.999185 -0.0342817   
     length 2.09783   
     axis 0 0 0   XYZ
    dof rx ry rz
    limits (-20.0 45.0)
           (-30.0 30.0)
           (-30.0 30.0)
  end
  begin
     id 13 
     name thorax
     direction 0.0312356 0.999036 -0.0308451   
     length 2.09788   
     axis 0 0 0   XYZ
    dof rx ry rz
    limits (-20.0 45.0)
           (-30.0 30.0)
           (-30.0 30.0)
  end
  begin
     id 14 
     name lowerneck
     direction -0.0114419 0.996481 0.0830329   
     length 1.38575   
     axis 0 0 0   XYZ
    dof rx ry rz
    limits (-20.0 45.0)
           (-30.0 30.0)
           (-30.0 30.0)
  end
  begin
     id 15 
     name upperneck
     direction -0.0075675 0.996187 -0.0869092   
     length 1.39401   
     axis 0 0 0   XYZ
    dof rx ry rz
    limits (-20.0 45.0)
           (-30.0 30.0)
           (-30.0 30.0)
  end
  begin
     id 16
     name head
     direction -0.00222073 0.999264 -0.0382974  
     length 1.3964  
     axis 0 0 0   XYZ
    dof rx ry rz
    limits (-20.0 45.0)
           (-30.0 30.0)
           (-30.0 30.0)
  end
  begin
     id 17 
     name lclavicle
     direction 0.965962 0.222138 0.132556  
     length 2.81514  
     axis 0 0 0   XYZ
    dof ry rz
    limits (-20.0 10.0)
           (0.0 20.0)
  end
  begin
     id 18 
     name lhumerus
     direction 1 -4.48972e-011 7.03471e-018   
     length 4.47366   
     axis 180 -30 -90   XYZ
    dof rx ry rz
    limits (-60.0 90.0)
           (-90.0 90.0)
           (-90.0 90.0)
  end
  begin
     id 19
     name lradius
     direction 1 -4.48951e-011 -6.22192e-028   
     length 3.19948   
     axis 180 -30 -90   XYZ
    dof rx
    limits (-10.0 170.0)
  end
  begin
     id 20
     name lwrist
     direction 1 -4.48967e-011 -1.24264e-027   
     length 1.59974   
     axis 1.40095e-015 90 90   XYZ
    dof ry
    limits (-180.0 0.0)
 end
  begin
     id 21 
     name lhand
     direction 1 -4.4897e-011 -2.48528e-027   
     length 0.492667   
     axis 1.58582e-015 90 90   XYZ
    dof rx rz
    limits (-90.0 90.0)
           (-45.0 45.0)
  end
  begin
     id 22 
     name lfingers
     direction 1 -4.48996e-011 -4.97056e-027   
     length 0.397201   
     axis 3.17164e-015 90 90   XYZ
    dof rx
    limits (0.0 90.0)
  end
  begin
     id 23
     name lthumb
     direction 0.707107 -6.34981e-011 0.707107   
     length 0.570303   
     axis -90 45 2.85299e-015   XYZ
    dof rx rz
    limits (-45.0 45.0)
           (-45.0 45.0)
  end
  begin
     id 24 
     name rclavicle
     direction -0.961164 0.229034 0.153972   
     length 3.09348  
     axis 0 0 0   XYZ 
    dof ry rz
    limits (-10.0 20.0)
           (-20.0 0.0)
  end
  begin
     id 25 
     name rhumerus
     direction -1 -4.48971e-011 -9.06263e-028  
     length 4.3269   
     axis 180 30 90   XYZ
    dof rx ry rz
    limits (-90.0 60.0)
           (-90.0 90.0)
           (-90.0 90.0)
  end
  begin
     id 26 
     name rradius
     direction -1 -4.48953e-011 1.44659e-027   
     length 3.1896   
     axis 180 30 90   XYZ
    dof rx
    limits (-10.0 170.0)
  end
  begin
     id 27 
     name rwrist
     direction -1 -4.48988e-011 -1.24264e-027   
     length 1.5948   
     axis 1.40095e-015 -90 -90   XYZ
    dof ry
    limits (-180.0 0.0)
  end
  begin
     id 28
     name rhand
     direction -1 -4.49033e-011 -2.48528e-027   
     length 0.464496   
     axis 1.58582e-015 -90 -90   XYZ
    dof rx rz
    limits (-90.0 90.0)
           (-45.0 45.0)
  end
  begin
     id 29
     name rfingers
     direction -1 -4.48905e-011 -4.97056e-027   
     length 0.374489   
     axis 3.17164e-015 -90 -90   XYZ
    dof rx
    limits (0.0 90.0)
  end
  begin
     id 30
     name rthumb
     direction -0.707107 -6.34909e-011 0.707107   
     length 0.537693   
     axis -90 -45 -2.85299e-015   XYZ
    dof rx rz
    limits (-45.0 45.0)
           (-45.0 45.0)
  end
:hierarchy
  begin
    root lhipjoint rhipjoint lowerback
    lhipjoint lfemur
    lfemur ltibia
    ltibia lfoot
    lfoot ltoes
    rhipjoint rfemur
    rfemur rtibia
    rtibia rfoot
    rfoot rtoes
    lowerback upperback
    upperback thorax
    thorax lowerneck lclavicle rclavicle
    lowerneck upperneck
    upperneck head
    lclavicle lhumerus
    lhumerus lradius
    lradius lwrist
    lwrist lhand lthumb
    lhand lfingers
    rclavicle rhumerus
    rhumerus rradius
    rradius rwrist
    rwrist rhand rthumb
    rhand rfingers
  end

#!OML:ASF G:\acrobat\cartwheel_test 2\Patient 1\Session 2\acrobat4.ASF
:FULLY-SPECIFIED
:DEGREES
974
root 9.54556 14.8082 -16.2566 7.50469 -9.8485 716.903
lowerback -4.96551 2.60399 -0.794929
upperback 1.58475 3.42508 2.51011
thorax 4.22114 1.64622 3.3324
lowerneck -13.3636 4.09006 3.0031
upperneck 11.1312 5.54572 -4.2911
head 5.75894 2.50729 -1.34626
rclavicle -4.72114e-015 -7.95139e-016
rhumerus -31.9747 0.451236 -84.4548
rradius 29.0549
rwrist 7.61123
rhand -9.76875 -1111.67
rfingers 7.12502
rthumb 16.2063 -61.0103
lclavicle -4.72114e-015 -7.95139e-016
lhumerus -36.2559 -2.19418 81.1108
lradius 21.167
lwrist 9.85749
lhand -31.7229 -350.024
lfingers 7.12502
lthumb -4.98114 -320.102
rfemur -4.33098 8.36876 29.8461
rtibia 31.8083
rfoot -29.2144 -23.1789
rtoes -0.174617
lfemur -44.2245 -0.19699 -13.8256
ltibia 39.2573
lfoot 153.112 -162.04
ltoes -8.87929
975
root 9.54025 14.7886 -16.0089 7.59514 -10.6044 716.832
lowerback -5.39823 2.75193 -1.03713
upperback 1.61987 3.64242 2.40744
thorax 4.48094 1.74426 3.40645
lowerneck -13.1011 4.03927 2.97752
upperneck 10.4681 5.52708 -4.7715
head 5.52009 2.47348 -1.5037
rclavicle -2.39536e-014 -6.36111e-015
rhumerus -32.343 0.00380497 -84.2726
rradius 27.9843
rwrist 8.26585
rhand -9.51627 -1111.4
rfingers 7.12502
rthumb 16.4494 -60.7213
lclavicle -2.39536e-014 -6.36111e-015
lhumerus -36.7078 -1.18005 80.4122
lradius 21.4276
lwrist 10.2448
lhand -31.6698 -350.577
lfingers 7.12502
lthumb -4.92992 -320.655
rfemur -3.26245 8.10271 29.5884
rtibia 31.5167
rfoot -28.795 -22.1833
rtoes -1.85778
lfemur -43.1055 0.226831 -14.1115
ltibia 39.604
lfoot 153.967 -161.908
ltoes -10.1063
976
root 9.54122 14.7957 -15.7483 7.76371 -11.2405 716.658
lowerback -5.86735 3.12873 -0.902998
upperback 1.35849 4.15429 2.02575
thorax 4.47846 2.00897 2.99915
lowerneck -12.0563 3.72142 3.73844
upperneck 9.59016 5.03784 -5.45701
head 5.09062 2.24396 -1.9049
rclavicle 4.4975e-015 -1.53064e-014
rhumerus -33.3713 -1.382 -84.1872
rradius 27.1147
rwrist 9.57972
rhand -9.14332 -1112.14
rfingers 7.12502
rthumb 16.8085 -61.4309
lclavicle 4.4975e-015 -1.53064e-014
lhumerus -37.489 -1.5302 79.8371
lradius 21.7859
lwrist 11.0894
lhand -31.7457 -350.862
lfingers 7.12502
lthumb -5.00321 -320.941
rfemur -2.10117 7.64853 29.3115
rtibia 30.9351
rfoot -28.0245 -20.9282
rtoes -3.27023
lfemur -42.2926 -0.329773 -13.8698
ltibia 40.088
lfoot 154.587 -160.506
ltoes -13.4366
977
root 9.54318 14.8088 -15.4953 8.14582 -11.4837 716.1
lowerback -6.23133 3.27661 -0.543322
upperback 1.05767 4.33064 1.89802
thorax 4.39721 2.11027 2.69428
lowerneck -12.2646 3.47788 3.29137
upperneck 9.75063 4.72561 -4.96267
head 5.13708 2.10257 -1.70122
rclavicle -2.82771e-014 -3.21037e-014
rhumerus -34.1426 -2.42388 -83.9191
rradius 25.8473
rwrist 12.4738
rhand -8.74522 -1112.8
rfingers 7.12502
rthumb 17.1917 -62.0605
lclavicle -2.82771e-014 -3.21037e-014
lhumerus -38.1544 -1.48988 79.5145
lradius 22.0936
lwrist 11.8539
lhand -31.9642 -350.401
lfingers 7.12502
lthumb -5.21418 -320.485
rfemur -0.972874 7.50394 29.5687
rtibia 30.1578
rfoot -27.1743 -19.9322
rtoes -4.18537
lfemur -42.1077 -1.69539 -12.8062
ltibia 40.6468
lfoot 154.963 -158.717
ltoes -9.77591
978
root 9.54659 14.8141 -15.2509 8.4098 -11.5084 715.757
lowerback -6.46249 3.24707 -0.541837
upperback 0.889359 4.29352 1.85192
thorax 4.3577 2.09381 2.65061
lowerneck -13.0484 3.32273 2.54826
upperneck 10.1941 4.56469 -4.29502
head 5.36543 2.02521 -1.3736
rclavicle -1.73005e-014 3.01159e-014
rhumerus -34.4889 -3.34767 -83.4118
rradius 24.796
rwrist 13.4572
rhand -7.56134 -1113.1
rfingers 7.12502
rthumb 18.3309 -62.2564
lclavicle -1.73005e-014 3.01159e-014
lhumerus -38.5689 -1.12176 79.4039
lradius 22.2873
lwrist 12.3281
lhand -32.0634 -349.988
lfingers 7.12502
lthumb -5.30995 -320.075
rfemur 0.244348 7.55464 29.6712
rtibia 29.4626
rfoot -26.5023 -18.7871
rtoes -3.82399
lfemur -41.8931 -2.25273 -12.3808
ltibia 41.1451
lfoot 155.882 -158.087
ltoes -6.17907
979
root 9.55641 14.8315 -14.9896 8.19505 -11.8181 716.33
lowerback -6.66281 3.20756 -1.36827
upperback 0.914011 4.32007 1.5977
thorax 4.4539 2.08784 2.86479
lowerneck -13.5292 3.24157 2.14404
upperneck 10.2594 4.49791 -4.08355
head 5.44932 1.98443 -1.24123
rclavicle 1.41463e-014 7.01958e-015
rhumerus -34.836 -4.01974 -82.8348
rradius 23.8061
rwrist 14.8384
rhand -8.62963 -1112.16
rfingers 7.12502
rthumb 17.3029 -61.4067
lclavicle 1.41463e-014 7.01958e-015
lhumerus -38.8128 -0.560255 79.3789
lradius 22.2576
lwrist 12.5273
lhand -32.0617 -350.215
lfingers 7.12502
lthumb -5.30829 -320.302
rfemur 1.56633 7.24932 28.5135
rtibia 29.122
rfoot -25.7075 -17.0463
rtoes -3.24951
lfemur -40.8989 -2.04824 -13.4081
ltibia 41.5256
lfoot 156.942 -157.709
ltoes -1.46315
980
root 9.56779 14.8665 -14.7287 7.95027 -11.9395 716.96
lowerback -6.73583 3.16352 -2.17038
upperback 0.874138 4.34367 1.26841
thorax 4.41887 2.08448 2.97582
lowerneck -13.6871 3.14965 1.97716
upperneck 10.0328 4.38794 -4.02998
head 5.39613 1.92866 -1.20642
rclavicle 3.22404e-014 -6.4605e-015
rhumerus -35.3123 -5.14277 -82.0427
rradius 22.9962
rwrist 16.73
rhand -8.9276 -1111.59
rfingers 7.12502
rthumb 17.0161 -60.8601
lclavicle 3.22404e-014 -6.4605e-015
lhumerus -38.9363 -0.255276 79.4272
lradius 22.0999
lwrist 12.6007
lhand -32.129 -350.421
lfingers 7.12502
lthumb -5.37328 -320.509
rfemur 2.40406 6.5395 27.2289
rtibia 29.2333
rfoot -24.3942 -15.6373
rtoes -4.31506
lfemur -39.8112 -2.01264 -14.432
ltibia 41.8378
lfoot 157.374 -157.747
ltoes 3.13015
981
root 9.57747 14.9011 -14.4887 7.90057 -11.684 717.035
lowerback -6.60205 3.02765 -2.54808
upperback 0.783256 4.19527 1.15169
thorax 4.24036 2.00803 3.03844
lowerneck -13.7438 3.07976 1.93788
upperneck 9.58507 4.30033 -4.16082
head 5.26507 1.87973 -1.2503
rclavicle -7.20594e-015 -1.13307e-014
rhumerus -35.6533 -6.41288 -81.0998
rradius 22.2982
rwrist 18.3618
rhand -8.17734 -1111.68
rfingers 7.12502
rthumb 17.7382 -60.8955
lclavicle -7.20594e-015 -1.13307e-014
lhumerus -38.8513 0.0557509 79.6065
lradius 21.8566
lwrist 12.3728
lhand -32.1185 -350.54
lfingers 7.12502
lthumb -5.36313 -320.628
rfemur 2.72764 5.43049 26.5945
rtibia 29.8372
rfoot -22.8395 -14.3586
rtoes -6.83213
lfemur -39.0278 -1.62311 -14.9266
ltibia 42.1168
lfoot 157.883 -158.959
ltoes 6.72738
982
root 9.59497 14.9088 -14.264 7.77933 -11.4683 717.016
lowerback -6.27426 2.85016 -2.84277
upperback 0.775035 3.97372 1.15599
thorax 4.04227 1.89608 3.16589
lowerneck -13.9453 3.06503 1.67833
upperneck 9.15566 4.3159 -4.19797
head 5.16015 1.87795 -1.21842
rclavicle 1.07965e-014 1.03368e-014
rhumerus -35.7999 -7.29425 -80.1517
rradius 21.8101
rwrist 19.418
rhand -7.4932 -1112.07
rfingers 7.12502
rthumb 18.3964 -61.221
lclavicle 1.07965e-014 1.03368e-014
lhumerus -38.4951 0.423351 80.0527
lradius 21.5737
lwrist 12.0093
lhand -31.8167 -350.36
lfingers 7.12502
lthumb -5.07179 -320.441
rfemur 2.97214 3.852 25.8496
rtibia 30.9823
rfoot -21.2185 -12.3566
rtoes -9.5964
lfemur -38.2956 -0.771029 -15.5209
ltibia 42.4341
lfoot 158.953 -160.252
ltoes 8.53166
983
root 9.62119 14.9202 -14.0406 7.56366 -11.3583 716.978
lowerback -5.86161 2.7799 -2.86159
upperback 0.681899 3.87391 1.03937
thorax 3.72718 1.85579 3.01821
lowerneck -13.5878 2.98529 1.52647
upperneck 8.60769 4.211 -4.14011
head 4.92304 1.83748 -1.19228
rclavicle 6.75868e-015 -5.36719e-015
rhumerus -36.2687 -7.7942 -79.4654
rradius 21.7468
rwrist 19.4312
rhand -7.24696 -1112.58
rfingers 7.12502
rthumb 18.6333 -61.7046
lclavicle 6.75868e-015 -5.36719e-015
lhumerus -38.2406 -0.081 80.8181
lradius 21.5208
lwrist 11.9562
lhand -31.4101 -349.729
lfingers 7.12502
lthumb -4.67914 -319.8
rfemur 2.89739 2.04034 24.8656
rtibia 32.7262
rfoot -19.3579 -9.7007
rtoes -11.1323
lfemur -37.4523 -0.178159 -16.0791
ltibia 42.7865
lfoot 159.598 -161.169
ltoes 9.02512
